<svg width="180" height="43" viewBox="0 0 180 43" fill="none" xmlns="http://www.w3.org/2000/svg"><path fill-rule="evenodd" clip-rule="evenodd" d="M100.568 29.77c.366.496.76.972 1.179 1.424.318.342.295.615-.037.906a5.836 5.836 0 0 1-3.441 1.62 8.32 8.32 0 0 1-3.919-.415 8.355 8.355 0 0 1-3.293-2.174 6.77 6.77 0 0 0-2.948-1.783c-4.048-1.253-6.32-4.817-6.155-8.805.227-5.43 4.278-8.11 7.895-8.6 2.997-.408 5.786.09 8.187 2.048 2.183 1.78 3.19 4.13 3.158 6.95-.099 3.735-1.791 6.439-5.173 8.048-.638.305-.65.481-.054.9.984.698 2.333.63 3.467-.285.527-.424.791-.305 1.134.166zM86.858 20.9c.006 2.883 1.993 5 4.71 5 2.74.006 4.767-2.137 4.762-5.034-.009-2.846-2.016-5.014-4.726-5.025-2.71-.011-4.751 2.177-4.745 5.06zm92.133 4.977c1.009 0 1.009.003 1.009 1.04 0 .25-.001.502-.003.75v.001c-.003.429-.005.85 0 1.255.012.455-.158.663-.635.663-4.214-.011-8.428-.011-12.64 0-.593.003-.644-.336-.644-.795V20.87c0-.87.003-1.74.006-2.61v-.008c.006-1.745.011-3.49-.006-5.236-.008-.65.23-.854.873-.854 3.943.019 7.884.019 11.824 0 .647-.006.888.233.851.88-.036.664-.036 1.33 0 1.994.017.627-.221.855-.833.855h-6.594c-.66 0-.988 0-1.15.163-.16.161-.16.481-.16 1.116 0 .877 0 1.316.22 1.536.22.221.663.221 1.549.221h5.029c.814 0 .887.069.887.903 0 .213-.002.426-.005.639-.005.425-.01.85.005 1.273.02.587-.229.8-.811.8-1.311-.011-2.617-.007-3.929-.004-.659.003-1.318.004-1.981.004-.941.003-.967.029-.967.943 0 .175.005.35.01.525.009.35.018.7-.01 1.045-.057.652.241.823.834.823h7.271zM123.317 12.92c0-.527-.198-.74-.72-.732-.696.012-1.392.008-2.085.004-.345-.002-.69-.004-1.033-.004-.805 0-.884.086-.887.918v7.583c.026.91-.05 1.821-.227 2.715-.36 1.54-1.417 2.435-2.917 2.478-1.741.051-2.795-.67-3.286-2.259a6.968 6.968 0 0 1-.266-2.091v-8.546c0-.57-.179-.832-.78-.815a65.613 65.613 0 0 1-3.26 0c-.587 0-.808.211-.799.8.017 1.11.011 2.217.005 3.325-.002.555-.005 1.11-.005 1.664h.017c0 .538-.004 1.077-.008 1.616-.009 1.077-.017 2.154.008 3.227.102 3.552 2.322 6.176 5.766 6.893a13.83 13.83 0 0 0 3.181.183c4.192-.103 7.155-2.997 7.254-7.213.058-2.147.052-4.31.045-6.48a443.923 443.923 0 0 1-.003-3.266zM75.848 20.91v-7.92c0-.595-.216-.809-.797-.794a65.495 65.495 0 0 1-3.26 0c-.603-.017-.788.245-.776.817.017.864.01 1.73.005 2.595v.001c-.003.433-.005.864-.005 1.296v11.81c0 .887.025.91.924.91.34 0 .68-.005 1.02-.008.68-.008 1.36-.015 2.038.007.675.032.851-.239.851-.877-.01-1.735-.006-3.476-.003-5.218v-.007c.001-.87.003-1.74.003-2.612zm59.155.02v-7.917c0-.57-.173-.834-.777-.817-1.108.028-2.217.02-3.328 0-.516 0-.729.196-.726.726v15.973c0 .57.241.75.78.735a51.864 51.864 0 0 1 3.192 0c.649.026.873-.194.867-.855a474.976 474.976 0 0 1-.011-5.6l.003-2.245zm-70.296 4.829c.627-.02.85.213.822.834a31.488 31.488 0 0 0-.013 2.08l.005.29c.005.459-.176.658-.644.658-3.94-.015-7.88-.015-11.821 0-.581 0-.663-.304-.663-.777V13.15c0-.9.04-.946.904-.946.339 0 .678.005 1.018.009.68.008 1.36.016 2.038-.009.646-.034.867.197.867.855-.01 2.58-.006 5.16-.003 7.74l.003 3.869c0 1.09.003 1.09 1.1 1.09.712 0 1.423.004 2.133.007 1.42.006 2.835.012 4.254-.006zm93.607-9.99c-1.741-2.377-4.233-3.382-7.059-3.505-1.991-.085-3.984-.072-5.978-.058-.792.005-1.584.01-2.376.01-.823 0-.871.057-.874.909v15.699c0 .63.213.832.834.823 1.05-.011 2.101-.009 3.152-.006h.001c1.303.004 2.607.007 3.911-.017a14.45 14.45 0 0 0 3.955-.535 8.547 8.547 0 0 0 3.49-2.064 8.634 8.634 0 0 0 .944-11.257zm-3.363 5.722c-.13 2.18-1.749 3.857-3.985 4.157-.608.08-1.221.119-1.834.116-.313-.004-.584-.003-.817-.002-.781.002-1.152.003-1.325-.182-.157-.167-.153-.485-.145-1.093.003-.194.006-.417.004-.674-.007-.97-.004-1.941-.002-2.91v-.001c.003-1.327.007-2.654-.015-3.98 0-.704.256-.918.91-.9.294.006.588.006.883.007.976 0 1.954 0 2.899.235 2.359.567 3.581 2.444 3.416 5.216l.011.011zM38.871 6.86c0-1.705-1.05-3.039-2.659-3.386a4.625 4.625 0 0 0-.992-.087H15.827c-1.783 0-3.128 1.045-3.466 2.669-.073.421-.101.85-.083 1.277v.017c.006.436.006.436.459.437h18.366a3.354 3.354 0 0 1 3.314 2.715c.063.347.09.698.083 1.05v18.226a.224.224 0 0 0 .262.257l.285.003c.191.002.382.005.57-.003 1.02-.058 1.873-.458 2.52-1.263.523-.652.732-1.408.732-2.23V16.73c.002-3.294.003-6.584.002-9.87zm-8.895 28.104c-.003-.227-.005-.341-.063-.4-.059-.058-.176-.058-.413-.058H11.338c-1.715 0-3.03-.968-3.457-2.519a4.812 4.812 0 0 1-.129-1.27V12.518a.207.207 0 0 0-.223-.238 6.392 6.392 0 0 0-1.477.084c-1.622.345-2.667 1.679-2.667 3.405v19.622c-.001.285.03.57.09.848a3.318 3.318 0 0 0 3.29 2.631c3.297.005 6.595.005 9.895 0h9.952a3.329 3.329 0 0 0 3.228-2.42c.116-.481.162-.976.136-1.47v-.017zM26.43 12.283c1.782.002 3.127 1.045 3.462 2.67.055.271.082.548.082.826V29.63c0 .4-.002.4-.398.4h-7.015l-2.31.001c-1.54.002-3.08.003-4.619 0a3.316 3.316 0 0 1-3.27-2.655 4.034 4.034 0 0 1-.083-.82V12.67c0-.38.008-.387.38-.387 4.591-.007 9.181-.007 13.771 0z" fill="#fff"/></svg>